# xmcd
#
# Track frame offsets:
#	150
#	17209
#	28459
#	46958
#	60020
#	90903
#	113916
#	132975
#	148128
#	169091
#	192149
#
# Disc length: 2739 seconds
#
# Revision: 1
# Processed by: cddbd v1.5.2PL0 Copyright (c) Steve Scherf et al.
# Submitted via: audiograbber 1.83.01
#
DISCID=900ab10b
DTITLE=Stoppok - Live Solo
DYEAR=2011
DGENRE=Blues
TTITLE0=Hölle losgeht
TTITLE1=Frisch renoviert
TTITLE2=Goldener Käfig
TTITLE3=Stell dir vor es gibt Arbeit
TTITLE4=Willi Moll
TTITLE5=Den anderen Weg
TTITLE6=Spezialisten Blues
TTITLE7=Schieber Blues
TTITLE8=Zeit für ein Wunder
TTITLE9=Cool durch Zufall
TTITLE10=Annabell
EXTD=
EXTT0=
EXTT1=
EXTT2=
EXTT3=
EXTT4=
EXTT5=
EXTT6=
EXTT7=
EXTT8=
EXTT9=
EXTT10=
PLAYORDER=
